<svg width="23" height="18" viewBox="0 0 23 18" fill="none" xmlns="http://www.w3.org/2000/svg">
<path d="M19.125 0H3.375C2.47989 0 1.62145 0.355579 0.988515 0.988515C0.355579 1.62145 0 2.47989 0 3.375V14.625C0 15.5201 0.355579 16.3786 0.988515 17.0115C1.62145 17.6444 2.47989 18 3.375 18H19.125C20.0201 18 20.8786 17.6444 21.5115 17.0115C22.1444 16.3786 22.5 15.5201 22.5 14.625V3.375C22.5 2.47989 22.1444 1.62145 21.5115 0.988515C20.8786 0.355579 20.0201 0 19.125 0ZM18.3713 2.25L11.25 7.59375L4.12875 2.25H18.3713ZM19.125 15.75H3.375C3.07663 15.75 2.79048 15.6315 2.5795 15.4205C2.36853 15.2095 2.25 14.9234 2.25 14.625V3.65625L10.575 9.9C10.7697 10.0461 11.0066 10.125 11.25 10.125C11.4934 10.125 11.7303 10.0461 11.925 9.9L20.25 3.65625V14.625C20.25 14.9234 20.1315 15.2095 19.9205 15.4205C19.7095 15.6315 19.4234 15.75 19.125 15.75Z" fill="#D51717"/>
</svg>
