<svg width="21" height="23" viewBox="0 0 21 23" fill="none" xmlns="http://www.w3.org/2000/svg">
<path d="M9.9473 0.00321961C8.17167 0.0246543 4.35422 0.316443 2.21904 2.2753C0.630797 3.84902 0.0762595 6.17573 0.0112639 9.05282C-0.0426687 11.9195 -0.107664 17.3031 5.08161 18.769V21.0016C5.08161 21.0016 5.04912 21.895 5.63961 22.0782C6.36701 22.3085 6.78118 21.6212 7.47262 20.8827L8.76217 19.4245C12.3127 19.7197 15.0322 19.0393 15.3454 18.9384C16.0659 18.7081 20.124 18.1896 20.787 12.8053C21.4674 7.2447 20.4558 3.74116 18.6297 2.15637H18.6187C18.0676 1.64885 15.8529 0.035026 10.9049 0.0170485C10.9049 0.0170485 10.5378 -0.00784348 9.9473 0.00252816V0.00321961ZM10.0081 1.56657C10.5122 1.56311 10.8185 1.58455 10.8185 1.58455C15.0066 1.59561 17.0055 2.85611 17.4771 3.28066C19.0149 4.59855 19.8073 7.75706 19.2272 12.3994C18.6761 16.9007 15.3848 17.1856 14.7756 17.3799C14.5164 17.4628 12.1212 18.0533 9.10374 17.859C9.10374 17.859 6.85655 20.5709 6.15404 21.2692C6.04272 21.3916 5.91273 21.4276 5.82976 21.4096C5.71083 21.3806 5.67487 21.2333 5.68179 21.0314L5.70322 17.3259C1.30219 16.109 1.56148 11.5171 1.6085 9.11851C1.66243 6.7199 2.11256 4.75758 3.45257 3.42863C5.25655 1.79751 8.49803 1.57764 10.0068 1.56657H10.0081ZM10.34 3.9645C10.3038 3.96413 10.2679 3.97094 10.2343 3.98453C10.2007 3.99811 10.1702 4.01821 10.1444 4.04367C10.1186 4.06912 10.0981 4.09942 10.0841 4.13283C10.0701 4.16623 10.0629 4.20208 10.0628 4.23831C10.0628 4.39319 10.1886 4.51558 10.34 4.51558C11.0256 4.50254 11.707 4.62535 12.3448 4.87694C12.9827 5.12853 13.5645 5.50391 14.0565 5.98143C15.0612 6.95706 15.5507 8.26804 15.5694 9.98212C15.5694 10.1335 15.6918 10.2594 15.8467 10.2594V10.2483C15.9197 10.2485 15.9898 10.2198 16.0417 10.1685C16.0937 10.1173 16.1232 10.0475 16.124 9.97452C16.1575 9.16771 16.0267 8.3625 15.7394 7.60782C15.4521 6.85315 15.0143 6.16478 14.4527 5.58455C13.3582 4.51488 11.9712 3.9638 10.34 3.9638V3.9645ZM6.69544 4.59855C6.49973 4.56995 6.30012 4.60924 6.12984 4.70987H6.11532C5.72 4.9416 5.36387 5.23448 5.06018 5.57763C4.8078 5.86942 4.6709 6.16467 4.63494 6.44885C4.61351 6.61825 4.62803 6.78766 4.6785 6.94945L4.69648 6.96052C4.98066 7.79578 5.35197 8.59924 5.80556 9.35568C6.38984 10.4184 7.10889 11.4012 7.94488 12.2798L7.96977 12.3157L8.00918 12.3448L8.03407 12.3738L8.06312 12.3987C8.94487 13.2372 9.93007 13.9596 10.9948 14.5484C12.2118 15.2108 12.9502 15.524 13.3934 15.654V15.6609C13.5234 15.7004 13.6417 15.7183 13.7606 15.7183C14.1383 15.6907 14.4959 15.5373 14.7763 15.2827C15.1179 14.979 15.4075 14.6214 15.6337 14.2241V14.2172C15.846 13.8176 15.7741 13.4393 15.4678 13.1835C14.8543 12.6473 14.191 12.171 13.4868 11.7612C13.0152 11.5054 12.5361 11.6603 12.3418 11.9195L11.9276 12.4416C11.7153 12.7009 11.3295 12.6649 11.3295 12.6649L11.3184 12.6718C8.44133 11.9368 7.67383 9.02378 7.67383 9.02378C7.67383 9.02378 7.63788 8.62759 7.90408 8.42568L8.42267 8.00805C8.67089 7.80615 8.84375 7.32767 8.57755 6.85542C8.17057 6.15025 7.69534 5.48674 7.15871 4.87443C7.04139 4.73008 6.87681 4.63187 6.69406 4.59717L6.69544 4.59855ZM10.8185 5.41998C10.4514 5.41998 10.4514 5.97452 10.822 5.97452C11.2785 5.98193 11.7291 6.07923 12.1481 6.26087C12.567 6.44251 12.946 6.70493 13.2635 7.03312C13.5531 7.35257 13.7756 7.7269 13.9179 8.13392C14.0602 8.54095 14.1193 8.97239 14.0918 9.40269C14.0931 9.47552 14.1228 9.54495 14.1746 9.59613C14.2264 9.6473 14.2962 9.67616 14.3691 9.67651L14.3801 9.69103C14.4535 9.69048 14.5237 9.6611 14.5756 9.60922C14.6275 9.55733 14.6569 9.48713 14.6574 9.41376C14.6823 8.31505 14.3407 7.39336 13.6707 6.6549C12.9973 5.91644 12.0576 5.50226 10.8579 5.41998H10.8185ZM11.2728 6.91073C10.8946 6.89967 10.8801 7.46527 11.2548 7.47633C12.1661 7.52335 12.6087 7.98385 12.6667 8.93113C12.668 9.00303 12.6974 9.07159 12.7485 9.12212C12.7997 9.17265 12.8686 9.20113 12.9406 9.20148H12.9516C12.9886 9.1999 13.0249 9.19096 13.0584 9.1752C13.0918 9.15944 13.1219 9.13717 13.1466 9.10968C13.1714 9.0822 13.1905 9.05005 13.2027 9.01512C13.2149 8.98019 13.2201 8.94318 13.2178 8.90624C13.1528 7.67132 12.4794 6.97573 11.2839 6.91143H11.2728V6.91073Z" fill="#794E9B"/>
</svg>
