<svg width="18" height="17" viewBox="0 0 18 17" fill="none" xmlns="http://www.w3.org/2000/svg">
<path d="M3.5 4.33331H14.9917C15.2245 4.33332 15.4548 4.38212 15.6676 4.47657C15.8805 4.57101 16.0711 4.70901 16.2274 4.88166C16.3836 5.05431 16.5019 5.25778 16.5747 5.47896C16.6475 5.70014 16.6732 5.93412 16.65 6.16581L16.15 11.1658C16.1089 11.5771 15.9164 11.9584 15.61 12.2357C15.3035 12.513 14.905 12.6666 14.4917 12.6666H6.53333C6.14789 12.6668 5.77431 12.5334 5.4762 12.289C5.17809 12.0447 4.97388 11.7046 4.89833 11.3266L3.5 4.33331Z" stroke="white" stroke-width="2" stroke-linejoin="round"/>
<path d="M3.5 4.33333L2.825 1.63083C2.77986 1.45063 2.67579 1.29067 2.52934 1.17638C2.38289 1.06209 2.20244 1 2.01667 1H1" fill="#1D4354"/>
<path d="M3.5 4.33333L2.825 1.63083C2.77986 1.45063 2.67579 1.29067 2.52934 1.17638C2.38289 1.06209 2.20244 1 2.01667 1H1" stroke="white" stroke-width="2" stroke-linecap="round" stroke-linejoin="round"/>
<path d="M6 16H7.66667H6Z" fill="#1D4354"/>
<path d="M6 16H7.66667" stroke="white" stroke-width="2" stroke-linecap="round" stroke-linejoin="round"/>
<path d="M12.6666 16H14.3333H12.6666Z" fill="#1D4354"/>
<path d="M12.6666 16H14.3333" stroke="white" stroke-width="2" stroke-linecap="round" stroke-linejoin="round"/>
</svg>
